<svg width="50" height="50" fill="none" xmlns="http://www.w3.org/2000/svg"><g clip-path="url(#a)"><path d="M33.333 48.959a1.042 1.042 0 0 1-2.083 0v-8.062c0-.304.189-.576.474-.682l.201-.075c7.696-2.884 12.867-10.323 12.867-18.515 0-7.683-4.548-14.702-11.459-17.923v18.215a1 1 0 0 1-1 1H17.667a1 1 0 0 1-1-1V3.702C9.757 6.923 5.208 13.942 5.208 21.625c0 8.192 5.17 15.631 12.867 18.515l.432.161a.374.374 0 0 1 .243.35v8.307a1.042 1.042 0 1 1-2.083 0v-7.027a.162.162 0 0 0-.1-.15C8.493 38.398 3.125 30.4 3.125 21.626c0-9.056 5.713-17.279 14.217-20.462a1.044 1.044 0 0 1 1.408.978v18.015c0 .374.303.678.678.678h11.144a.678.678 0 0 0 .678-.678V2.14c0-.728.726-1.233 1.408-.978 8.505 3.183 14.217 11.408 14.217 20.462 0 8.672-5.243 16.584-13.159 20.036a.633.633 0 0 0-.383.577v6.72Z" fill="#004B98"/></g><defs><clipPath id="a"><path fill="#fff" d="M0 0h50v50H0z"/></clipPath></defs></svg>