<svg width="50" height="50" fill="none" xmlns="http://www.w3.org/2000/svg"><g clip-path="url(#a)"><path d="M16.77 4.217h.042l.008-.04A5.166 5.166 0 0 1 21.875.05h6.25a5.167 5.167 0 0 1 5.055 4.127l.008.04H34.375c5.141 0 9.325 4.184 9.325 9.325v27.083c0 5.141-4.184 9.325-9.325 9.325h-18.75A9.335 9.335 0 0 1 6.3 40.625V13.542c0-5.141 4.184-9.325 9.325-9.325h1.146Zm18.597 30.158a.992.992 0 0 1-.992.992H23.958a.992.992 0 0 1 0-1.984h10.417a.992.992 0 0 1 .992.992Zm6.35-20.833c0-4.049-3.294-7.342-7.342-7.342h-2.083a.992.992 0 0 1-.992-.992 3.179 3.179 0 0 0-3.175-3.175h-6.25A3.179 3.179 0 0 0 18.7 5.208a.992.992 0 0 1-.992.992h-2.083c-4.048 0-7.342 3.293-7.342 7.342v27.083c0 4.048 3.294 7.342 7.342 7.342h18.75c4.048 0 7.342-3.294 7.342-7.342V13.542ZM15.229 32.937a2.033 2.033 0 1 1 2.875 2.876 2.033 2.033 0 0 1-2.875-2.876Zm8.73-7.887h10.416a.992.992 0 0 1 0 1.983H23.958a.992.992 0 1 1 0-1.983Zm-8.73-.446a2.033 2.033 0 1 1 2.876 2.876 2.033 2.033 0 0 1-2.876-2.876Zm8.73-7.887h10.416a.992.992 0 1 1 0 1.983H23.958a.992.992 0 0 1 0-1.983Zm-8.73-.447a2.033 2.033 0 1 1 2.875 2.876 2.033 2.033 0 0 1-2.875-2.876Z" fill="#004B98" stroke="#fff" stroke-width=".1"/></g><defs><clipPath id="a"><path fill="#fff" d="M0 0h50v50H0z"/></clipPath></defs></svg>