<svg width="50" height="50" fill="none" xmlns="http://www.w3.org/2000/svg"><path d="M50 35.291a1.042 1.042 0 0 1-1.042 1.042h-2.43c-1.568 0-3.122.517-4.376 1.458L29.46 47.308a7.279 7.279 0 0 1-8.937-.013L7.846 37.791a7.331 7.331 0 0 0-4.375-1.458H1.04a1.042 1.042 0 0 1 0-2.083h2.432c2.017 0 4.012.664 5.623 1.873l12.692 9.516a5.21 5.21 0 0 0 6.41.013l12.706-9.53a9.348 9.348 0 0 1 1.425-.877l-15.164-11.37-2.732 2.614A5.183 5.183 0 0 1 20.77 28a5.299 5.299 0 0 1-4.248-2.189c-1.465-2.033-1.156-4.983.723-6.86l6.31-5.942-2.054-1.87c-2.22-2.022-5.69-2.382-8.2-1.124l-4.823 2.413a9.425 9.425 0 0 1-4.194.99H1.042a1.041 1.041 0 1 1 0-2.084h3.241a7.346 7.346 0 0 0 3.26-.769l4.824-2.412a9.341 9.341 0 0 1 4.173-.986 9.375 9.375 0 0 1 6.362 2.431l2.17 1.98 1.99-1.873c2.79-2.625 7.16-3.26 10.57-1.552l4.822 2.412a7.345 7.345 0 0 0 3.26.769h3.242a1.041 1.041 0 1 1 0 2.083h-3.241a9.43 9.43 0 0 1-4.194-.99l-4.823-2.412c-2.65-1.329-6.044-.833-8.208 1.206l-9.798 9.225c-1.142 1.142-1.357 2.934-.482 4.148a3.114 3.114 0 0 0 2.302 1.313A3.148 3.148 0 0 0 22.976 25l8.677-8.307a1.042 1.042 0 0 1 1.44 1.507l-4.402 4.214 16.022 12.017a9.284 9.284 0 0 1 1.815-.181h2.431A1.041 1.041 0 0 1 50 35.29Z" fill="#004B98"/></svg>