<svg width="23" height="23" fill="none" xmlns="http://www.w3.org/2000/svg"><g clip-path="url(#a)" fill="#004B98"><path d="M21.72 4.551a5.711 5.711 0 0 0-1.35-1.934 6.32 6.32 0 0 0-1.922-1.282 9.782 9.782 0 0 0-2.575-.517h-8.77a6.477 6.477 0 0 0-2.575.517 5.622 5.622 0 0 0-1.923 1.282 6.477 6.477 0 0 0-1.293 1.934 9.748 9.748 0 0 0-.506 2.575v8.748c-.01.884.163 1.76.506 2.575a5.824 5.824 0 0 0 1.293 1.934 6.319 6.319 0 0 0 1.923 1.282c.832.282 1.698.455 2.575.517h8.77c.885.005 1.76-.17 2.575-.517a5.622 5.622 0 0 0 1.923-1.282 6.62 6.62 0 0 0 1.349-1.934 10.12 10.12 0 0 0 .517-2.575V7.126a6.43 6.43 0 0 0-.517-2.575Zm-1.473 11.323a4.79 4.79 0 0 1-.394 1.934 4.048 4.048 0 0 1-.764 1.282 2.71 2.71 0 0 1-1.293.776c-.627.192-1.27.32-1.923.382h-8.77a4.97 4.97 0 0 1-1.923-.382 4.262 4.262 0 0 1-1.293-.776 2.609 2.609 0 0 1-.765-1.282 9.602 9.602 0 0 1-.393-1.934V7.126a4.734 4.734 0 0 1 .393-1.934c.174-.47.433-.905.765-1.282a2.62 2.62 0 0 1 1.293-.776 8.906 8.906 0 0 1 1.923-.382h8.77a4.767 4.767 0 0 1 1.923.383c.474.18.911.442 1.293.775.374.344.64.79.764 1.282.199.63.33 1.277.394 1.934v8.748Z"/><path d="M15.098 11.5a3.677 3.677 0 0 1-3.599 3.598 3.61 3.61 0 1 1 3.599-3.598Z"/><path d="M19.854 5.192a2.608 2.608 0 0 0-.765-1.282 4.262 4.262 0 0 0-1.293-.775 4.768 4.768 0 0 0-1.922-.383h-8.77a8.906 8.906 0 0 0-1.924.383 2.62 2.62 0 0 0-1.293.775c-.332.377-.591.811-.764 1.282-.266.61-.4 1.269-.394 1.934v8.748c.065.656.196 1.304.394 1.934.124.493.39.938.764 1.282.382.333.82.596 1.293.776.61.253 1.263.383 1.923.382h8.77a9.674 9.674 0 0 0 1.923-.382 2.71 2.71 0 0 0 1.293-.776c.332-.376.592-.811.765-1.282.264-.61.398-1.269.393-1.934V7.126a9.416 9.416 0 0 0-.393-1.934ZM11.5 17.032A5.498 5.498 0 0 1 5.978 11.5a5.543 5.543 0 0 1 11.075 0 5.487 5.487 0 0 1-5.554 5.532Zm5.622-9.906a1.293 1.293 0 0 1-1.248-1.293 1.282 1.282 0 0 1 1.281-1.282 1.293 1.293 0 0 1 1.293 1.282 1.304 1.304 0 0 1-1.293 1.293h-.033Z"/></g><defs><clipPath id="a"><path fill="#fff" transform="translate(.818 .818)" d="M0 0h21.364v21.364H0z"/></clipPath></defs></svg>