<svg width="90" height="48" viewBox="0 0 90 48" fill="none" xmlns="http://www.w3.org/2000/svg">
<path d="M47.0896 8.56396H44.0083V11.6689H47.0896V8.56396Z" fill="#004B98"/>
<path d="M57.8739 3.05486L53.2023 7.76234L45.4991 0L37.8456 7.76234L33.174 3.05486L24.626 11.6686H28.1545L33.174 6.61051L36.0565 9.51513L33.9692 11.6686H37.4481L45.4991 3.55565L53.5999 11.6686H57.0788L54.9915 9.51513L57.8739 6.61051L62.8934 11.6686H66.422L57.8739 3.05486Z" fill="#004B98"/>
<path d="M32.1631 41.5611V43.5059H58.8313V41.5611H32.1631Z" fill="#004B98"/>
<path d="M42.9209 45.4537V47.3984H48.1259V45.4537H42.9209Z" fill="#004B98"/>
<path d="M0 25.7036L0 19.7496C0 18.3531 0.86802 17.6626 2.58883 17.6626H9.74619V19.504H3.57868C3.22843 19.504 3.04569 19.6421 3.04569 19.9337L3.04569 25.5194C3.04569 25.811 3.22843 25.9491 3.57868 25.9491H9.74619V27.7905H2.58883C0.86802 27.7905 0 27.1 0 25.7036Z" fill="#004B98"/>
<path d="M11.5737 27.7905L11.5737 17.6626H14.8478L19.1879 23.7393V17.6626H22.2336V27.7905H18.9595L14.6194 21.7138V27.7905H11.5737Z" fill="#004B98"/>
<path d="M29.2388 25.7036V19.7496C29.2388 18.3531 30.1068 17.6626 31.8276 17.6626H38.985V19.504H32.8175C32.4672 19.504 32.2845 19.6421 32.2845 19.9337V25.5194C32.2845 25.811 32.4672 25.9491 32.8175 25.9491H36.5484V23.3404H34.5687V21.4989H39.5941V27.7905H31.8276C30.1068 27.7905 29.2388 27.1 29.2388 25.7036Z" fill="#004B98"/>
<path d="M41.5737 25.9491V20.2713H44.3148V25.8724C44.3148 26.0718 44.4367 26.1793 44.6956 26.1793H47.3605V20.2713H50.1016V27.7905H43.858C42.3352 27.7905 41.5737 27.1767 41.5737 25.9491Z" fill="#004B98"/>
<path d="M51.9287 25.9491V17.6626H54.6698V20.2713H57.2587V21.8826H54.6698V25.8724C54.6698 26.0718 54.7917 26.1793 55.0505 26.1793H57.2587V27.7905H54.213C52.6901 27.7905 51.9287 27.1767 51.9287 25.9491Z" fill="#004B98"/>
<path d="M58.7817 25.9491V17.6626H61.5229V20.2713H64.1117V21.8826H61.5229V25.8724C61.5229 26.0718 61.6447 26.1793 61.9036 26.1793H64.1117V27.7905H61.066C59.5432 27.7905 58.7817 27.1767 58.7817 25.9491Z" fill="#004B98"/>
<path d="M65.6348 25.9491V22.1127C65.6348 20.8851 66.3962 20.2713 67.919 20.2713H71.5739C73.0967 20.2713 73.8581 20.8851 73.8581 22.1127V24.7215H68.3759V25.8724C68.3759 26.0718 68.4977 26.1793 68.7566 26.1793H73.5535V27.7905H67.919C66.3962 27.7905 65.6348 27.1767 65.6348 25.9491ZM68.3759 23.1102H71.117V22.1895C71.117 21.99 70.9952 21.8826 70.7363 21.8826H68.7566C68.4977 21.8826 68.3759 21.99 68.3759 22.1895V23.1102Z" fill="#004B98"/>
<path d="M75.6851 27.7905V22.1127C75.6851 20.8851 76.4465 20.2713 77.9693 20.2713H81.015V21.8826H78.8069C78.548 21.8826 78.4262 21.99 78.4262 22.1895V27.7905H75.6851Z" fill="#004B98"/>
<path d="M82.2334 27.7905V26.1793H86.8781C87.1065 26.1793 87.2588 26.1025 87.2588 25.8724V25.0284C87.2588 24.7982 87.1065 24.7215 86.8781 24.7215H84.5177C82.9948 24.7215 82.2334 24.1076 82.2334 22.88V22.1127C82.2334 20.8851 82.9948 20.2713 84.5177 20.2713H89.3908V21.8826H85.3552C85.1268 21.8826 84.9745 21.9593 84.9745 22.1895V22.8033C84.9745 23.0335 85.1268 23.1102 85.3552 23.1102H87.7156C89.2385 23.1102 89.9999 23.724 89.9999 24.9516V25.9491C89.9999 27.1767 89.2385 27.7905 87.7156 27.7905H82.2334Z" fill="#004B98"/>
<path d="M18.5216 34.0549C18.5596 34.0549 18.5758 34.0768 18.565 34.1151L17.7725 36.6749C17.7616 36.7077 17.7454 36.7241 17.7128 36.7241H17.2189C17.1917 36.7241 17.17 36.7132 17.1591 36.6804L16.7738 35.3841L16.3612 36.6804C16.3504 36.7132 16.3287 36.7241 16.3015 36.7241H15.8076C15.775 36.7241 15.7587 36.7077 15.7479 36.6749L14.9608 34.1151C14.95 34.0768 14.9662 34.0549 15.0042 34.0549H15.3842C15.4168 34.0549 15.4331 34.0713 15.4439 34.1042L16.0736 36.3139L16.5892 34.7222L16.4264 34.1698C16.4155 34.1315 16.4318 34.1096 16.4698 34.1096H16.8118C16.8443 34.1096 16.866 34.126 16.8715 34.1534L17.4523 36.3139L18.0819 34.1042C18.0928 34.0713 18.109 34.0549 18.1416 34.0549H18.5216Z" fill="#004B98"/>
<path d="M19.5585 35.5042V35.6792C19.5585 36.1715 19.7485 36.3793 20.2045 36.3793C20.5464 36.3793 20.731 36.2645 20.7364 36.0457C20.7364 36.0074 20.7635 35.9855 20.7961 35.9855H21.1489C21.1761 35.9855 21.1978 36.0074 21.2032 36.0347C21.2304 36.4997 20.8341 36.7896 20.1773 36.7896C19.4826 36.7896 19.1189 36.4614 19.0972 35.816V35.0502C19.0972 34.361 19.4771 33.9891 20.1773 33.9891C20.8775 33.9891 21.2521 34.3501 21.2521 35.0229V35.4495C21.2521 35.4823 21.2304 35.5042 21.1978 35.5042H19.5585ZM20.1828 34.3993C19.7594 34.3993 19.5585 34.629 19.5585 35.1049H20.7907C20.7907 34.6236 20.6007 34.3993 20.1828 34.3993Z" fill="#004B98"/>
<path d="M25.2794 36.6585C25.3011 36.6968 25.2848 36.7241 25.2414 36.7241H24.8235C24.7963 36.7241 24.7746 36.7077 24.7583 36.6858L23.9658 35.395L23.5859 35.7833V36.6694C23.5859 36.7022 23.5642 36.7241 23.5316 36.7241H23.1788C23.1462 36.7241 23.1245 36.7022 23.1245 36.6694V33.0431C23.1245 33.0102 23.1462 32.9884 23.1788 32.9884H23.5316C23.5642 32.9884 23.5859 33.0102 23.5859 33.0431V35.2145L24.6281 34.0823C24.6443 34.0604 24.6661 34.0549 24.6932 34.0549H25.1709C25.2197 34.0549 25.2306 34.0878 25.198 34.1206L24.2969 35.0504L25.2794 36.6585Z" fill="#004B98"/>
<path d="M27.1899 33.9893C27.711 33.9893 27.9932 34.3011 27.9932 34.9027V36.6694C27.9932 36.7022 27.9715 36.7241 27.939 36.7241H27.5861C27.5536 36.7241 27.5319 36.7022 27.5319 36.6694V34.9246C27.5319 34.5636 27.3853 34.3995 27.0868 34.3995C26.8262 34.3995 26.6037 34.5253 26.2509 34.8644V36.6694C26.2509 36.7022 26.2292 36.7241 26.1966 36.7241H25.8438C25.8112 36.7241 25.7895 36.7022 25.7895 36.6694V34.7222C25.7895 34.5363 25.7732 34.2573 25.7515 34.126C25.7461 34.0823 25.7624 34.0549 25.8058 34.0549H26.1369C26.1749 34.0549 26.1857 34.0659 26.1966 34.1096C26.2129 34.1753 26.2292 34.323 26.24 34.4542C26.5711 34.126 26.8425 33.9893 27.1899 33.9893Z" fill="#004B98"/>
<path d="M29.855 33.9891C30.5823 33.9891 30.9731 34.3446 30.9731 35.0721V35.7066C30.9731 36.434 30.5932 36.7896 29.855 36.7896C29.1222 36.7896 28.7368 36.434 28.7368 35.7066V35.0721C28.7368 34.3446 29.1168 33.9891 29.855 33.9891ZM30.5118 35.1158C30.5118 34.6345 30.3164 34.3993 29.855 34.3993C29.3936 34.3993 29.1982 34.6345 29.1982 35.1158V35.6628C29.1982 36.1441 29.3936 36.3793 29.855 36.3793C30.3164 36.3793 30.5118 36.1441 30.5118 35.6628V35.1158Z" fill="#004B98"/>
<path d="M35.066 34.0549C35.104 34.0549 35.1203 34.0768 35.1094 34.1151L34.3169 36.6749C34.3061 36.7077 34.2898 36.7241 34.2572 36.7241H33.7633C33.7361 36.7241 33.7144 36.7132 33.7036 36.6804L33.3182 35.3841L32.9057 36.6804C32.8948 36.7132 32.8731 36.7241 32.846 36.7241H32.352C32.3194 36.7241 32.3032 36.7077 32.2923 36.6749L31.5053 34.1151C31.4944 34.0768 31.5107 34.0549 31.5487 34.0549H31.9286C31.9612 34.0549 31.9775 34.0713 31.9883 34.1042L32.618 36.3139L33.1336 34.7222L32.9708 34.1698C32.9599 34.1315 32.9762 34.1096 33.0142 34.1096H33.3562C33.3888 34.1096 33.4105 34.126 33.4159 34.1534L33.9967 36.3139L34.6263 34.1042C34.6372 34.0713 34.6535 34.0549 34.686 34.0549H35.066Z" fill="#004B98"/>
<path d="M37.4271 33.3437C37.4597 33.3437 37.4814 33.3601 37.4814 33.3984L37.4868 34.0547H38.2956C38.3282 34.0547 38.3499 34.0766 38.3499 34.1094V34.3993C38.3499 34.4321 38.3282 34.454 38.2956 34.454H37.4868V35.9199C37.4868 36.2645 37.5954 36.3848 37.8831 36.3848C38.0296 36.3848 38.1816 36.3465 38.2902 36.2973C38.3282 36.2809 38.3553 36.2973 38.3553 36.3356V36.6364C38.3553 36.6637 38.3444 36.6856 38.3119 36.6966C38.1816 36.7513 38.0079 36.7896 37.7799 36.7896C37.2263 36.7896 37.0255 36.5051 37.0255 35.9308V34.454H36.6075C36.5749 34.454 36.5532 34.4321 36.5532 34.3993V34.1094C36.5532 34.0766 36.5749 34.0547 36.6075 34.0547H37.0363L37.096 33.3984C37.1014 33.3601 37.1232 33.3437 37.1557 33.3437H37.4271Z" fill="#004B98"/>
<path d="M40.3585 33.9893C40.8796 33.9893 41.1564 34.3011 41.1564 34.9027V36.6694C41.1564 36.7022 41.1347 36.7241 41.1021 36.7241H40.7493C40.7167 36.7241 40.695 36.7022 40.695 36.6694V34.9246C40.695 34.5691 40.5485 34.3995 40.2553 34.3995C39.9839 34.3995 39.7234 34.5472 39.414 34.8644V36.6694C39.414 36.7022 39.3923 36.7241 39.3597 36.7241H39.0069C38.9743 36.7241 38.9526 36.7022 38.9526 36.6694V33.0431C38.9526 33.0102 38.9743 32.9884 39.0069 32.9884H39.3597C39.3923 32.9884 39.414 33.0102 39.414 33.0431V34.4433C39.7343 34.126 40.0165 33.9893 40.3585 33.9893Z" fill="#004B98"/>
<path d="M42.3613 35.5042V35.6792C42.3613 36.1715 42.5513 36.3793 43.0072 36.3793C43.3492 36.3793 43.5337 36.2645 43.5391 36.0457C43.5391 36.0074 43.5663 35.9855 43.5989 35.9855H43.9517C43.9788 35.9855 44.0005 36.0074 44.0059 36.0347C44.0331 36.4997 43.6368 36.7896 42.9801 36.7896C42.2853 36.7896 41.9216 36.4614 41.8999 35.816V35.0502C41.8999 34.361 42.2799 33.9891 42.9801 33.9891C43.6803 33.9891 44.0548 34.3501 44.0548 35.0229V35.4495C44.0548 35.4823 44.0331 35.5042 44.0005 35.5042H42.3613ZM42.9855 34.3993C42.5621 34.3993 42.3613 34.629 42.3613 35.1049H43.5934C43.5934 34.6236 43.4034 34.3993 42.9855 34.3993Z" fill="#004B98"/>
<path d="M48.0281 34.0549C48.0661 34.0549 48.0824 34.0768 48.0715 34.1151L47.1813 36.6804C47.1705 36.7132 47.1433 36.7241 47.1162 36.7241H46.6114C46.5843 36.7241 46.5571 36.7077 46.5463 36.6804L45.6615 34.1151C45.6506 34.0768 45.6669 34.0549 45.7049 34.0549H46.0795C46.1066 34.0549 46.1337 34.0713 46.1446 34.0987L46.8665 36.385L47.5884 34.0987C47.5993 34.0713 47.6264 34.0549 47.6536 34.0549H48.0281Z" fill="#004B98"/>
<path d="M50.4869 36.0621C50.4869 36.3192 50.4978 36.5161 50.5249 36.6637C50.5303 36.702 50.5086 36.7239 50.4706 36.7239H50.1558C50.1124 36.7239 50.1015 36.6911 50.0907 36.6473C50.0798 36.5981 50.0581 36.4395 50.0473 36.2973C49.7053 36.6473 49.4339 36.7896 49.1191 36.7896C48.6957 36.7896 48.4731 36.5325 48.4731 36.0402C48.4731 35.4714 48.7771 35.2416 49.6022 35.1651L50.0255 35.1268V34.9025C50.0255 34.5361 49.8953 34.3993 49.537 34.3993C49.2113 34.3993 49.0431 34.5142 49.0485 34.7384C49.0485 34.7713 49.0322 34.7931 48.9997 34.7931H48.6414C48.6034 34.7931 48.5871 34.7658 48.5817 34.6892C48.5437 34.2735 48.9399 33.9891 49.5533 33.9891C50.183 33.9891 50.4869 34.2845 50.4869 34.8916V36.0621ZM48.9345 36.0074C48.9345 36.259 49.0322 36.3793 49.2385 36.3793C49.4556 36.3793 49.6619 36.2535 50.0255 35.9035V35.4823L49.5913 35.5206C49.0919 35.5644 48.9345 35.6792 48.9345 36.0074Z" fill="#004B98"/>
<path d="M51.7079 32.9884C51.7404 32.9884 51.7622 33.0102 51.7622 33.0431V36.6694C51.7622 36.7022 51.7404 36.7241 51.7079 36.7241H51.3551C51.3225 36.7241 51.3008 36.7022 51.3008 36.6694V33.0431C51.3008 33.0102 51.3225 32.9884 51.3551 32.9884H51.7079Z" fill="#004B98"/>
<path d="M54.7424 36.6692C54.7478 36.702 54.7261 36.7239 54.6827 36.7239H54.3787C54.3407 36.7239 54.319 36.7075 54.3136 36.6692C54.2973 36.5544 54.281 36.434 54.2756 36.3028C53.9391 36.6255 53.6188 36.7896 53.2932 36.7896C52.8318 36.7896 52.5767 36.4668 52.5767 35.8761V34.1094C52.5767 34.0766 52.5984 34.0547 52.6309 34.0547H52.9838C53.0163 34.0547 53.038 34.0766 53.038 34.1094V35.8542C53.038 36.2152 53.1629 36.3793 53.4288 36.3793C53.6731 36.3793 53.8957 36.2535 54.243 35.9144V34.1094C54.243 34.0766 54.2648 34.0547 54.2973 34.0547H54.6501C54.6827 34.0547 54.7044 34.0766 54.7044 34.1094V36.0566C54.7044 36.2535 54.7153 36.4668 54.7424 36.6692Z" fill="#004B98"/>
<path d="M55.9091 35.5042V35.6792C55.9091 36.1715 56.0991 36.3793 56.5551 36.3793C56.897 36.3793 57.0816 36.2645 57.087 36.0457C57.087 36.0074 57.1141 35.9855 57.1467 35.9855H57.4995C57.5267 35.9855 57.5484 36.0074 57.5538 36.0347C57.5809 36.4997 57.1847 36.7896 56.5279 36.7896C55.8331 36.7896 55.4695 36.4614 55.4478 35.816V35.0502C55.4478 34.361 55.8277 33.9891 56.5279 33.9891C57.2281 33.9891 57.6027 34.3501 57.6027 35.0229V35.4495C57.6027 35.4823 57.5809 35.5042 57.5484 35.5042H55.9091ZM56.5333 34.3993C56.11 34.3993 55.9091 34.629 55.9091 35.1049H57.1413C57.1413 34.6236 56.9513 34.3993 56.5333 34.3993Z" fill="#004B98"/>
<path d="M60.5229 33.9891C61.2503 33.9891 61.6411 34.3446 61.6411 35.0721V35.7066C61.6411 36.434 61.2611 36.7896 60.5229 36.7896C59.7902 36.7896 59.4048 36.434 59.4048 35.7066V35.0721C59.4048 34.3446 59.7847 33.9891 60.5229 33.9891ZM61.1797 35.1158C61.1797 34.6345 60.9843 34.3993 60.5229 34.3993C60.0616 34.3993 59.8662 34.6345 59.8662 35.1158V35.6628C59.8662 36.1441 60.0616 36.3793 60.5229 36.3793C60.9843 36.3793 61.1797 36.1441 61.1797 35.6628V35.1158Z" fill="#004B98"/>
<path d="M63.02 33.7815V34.0549H63.8071C63.8397 34.0549 63.8614 34.0768 63.8614 34.1096V34.3995C63.8614 34.4323 63.8397 34.4542 63.8071 34.4542H63.02V36.6694C63.02 36.7022 62.9983 36.7241 62.9658 36.7241H62.6129C62.5804 36.7241 62.5587 36.7022 62.5587 36.6694V34.4542H62.1407C62.1081 34.4542 62.0864 34.4323 62.0864 34.3995V34.1096C62.0864 34.0768 62.1081 34.0549 62.1407 34.0549H62.5587V33.7705C62.5587 33.24 62.8898 32.9282 63.4434 32.9282C63.6063 32.9282 63.7962 32.961 63.9211 33.0157C63.9916 33.0431 64.0242 33.0704 64.0242 33.1032V33.4041C64.0242 33.4423 63.9971 33.4642 63.8994 33.4205C63.7854 33.3712 63.6063 33.3329 63.476 33.3329C63.1774 33.3329 63.02 33.4916 63.02 33.7815Z" fill="#004B98"/>
<path d="M66.0922 33.3437C66.1247 33.3437 66.1464 33.3601 66.1464 33.3984L66.1519 34.0547H66.9606C66.9932 34.0547 67.0149 34.0766 67.0149 34.1094V34.3993C67.0149 34.4321 66.9932 34.454 66.9606 34.454H66.1519V35.9199C66.1519 36.2645 66.2604 36.3848 66.5481 36.3848C66.6947 36.3848 66.8466 36.3465 66.9552 36.2973C66.9932 36.2809 67.0203 36.2973 67.0203 36.3356V36.6364C67.0203 36.6637 67.0095 36.6856 66.9769 36.6966C66.8466 36.7513 66.673 36.7896 66.445 36.7896C65.8913 36.7896 65.6905 36.5051 65.6905 35.9308V34.454H65.2725C65.24 34.454 65.2183 34.4321 65.2183 34.3993V34.1094C65.2183 34.0766 65.24 34.0547 65.2725 34.0547H65.7013L65.7611 33.3984C65.7665 33.3601 65.7882 33.3437 65.8208 33.3437H66.0922Z" fill="#004B98"/>
<path d="M67.8399 32.9665C68.0299 32.9665 68.133 33.0485 68.133 33.2071V33.3548C68.133 33.508 68.0299 33.59 67.8399 33.59C67.6554 33.59 67.5522 33.508 67.5522 33.3548V33.2071C67.5522 33.0485 67.6554 32.9665 67.8399 32.9665ZM68.0245 34.0549C68.057 34.0549 68.0788 34.0768 68.0788 34.1096V36.6694C68.0788 36.7022 68.057 36.7241 68.0245 36.7241H67.6717C67.6391 36.7241 67.6174 36.7022 67.6174 36.6694V34.1096C67.6174 34.0768 67.6391 34.0549 67.6717 34.0549H68.0245Z" fill="#004B98"/>
<path d="M71.927 33.9893C72.4101 33.9893 72.6652 34.3011 72.6652 34.8973V36.6694C72.6652 36.7022 72.6435 36.7241 72.611 36.7241H72.2582C72.2256 36.7241 72.2039 36.7022 72.2039 36.6694V34.9246C72.2039 34.5746 72.079 34.3995 71.8131 34.3995C71.5742 34.3995 71.3408 34.5417 71.0097 34.8644V36.6694C71.0097 36.7022 70.988 36.7241 70.9554 36.7241H70.6026C70.5701 36.7241 70.5483 36.7022 70.5483 36.6694V34.9246C70.5483 34.5746 70.4235 34.3995 70.1575 34.3995C69.9187 34.3995 69.6853 34.5417 69.3542 34.8644V36.6694C69.3542 36.7022 69.3325 36.7241 69.2999 36.7241H68.9471C68.9145 36.7241 68.8928 36.7022 68.8928 36.6694V34.7222C68.8928 34.5253 68.882 34.2956 68.8548 34.1206C68.8494 34.0823 68.8711 34.0549 68.9145 34.0549H69.2402C69.2782 34.0549 69.2891 34.0604 69.2945 34.0932C69.3108 34.2026 69.3325 34.3284 69.3433 34.4597C69.669 34.1315 69.935 33.9893 70.2715 33.9893C70.6406 33.9893 70.8686 34.1643 70.9609 34.498C71.3083 34.1425 71.5797 33.9893 71.927 33.9893Z" fill="#004B98"/>
<path d="M73.8706 35.5042V35.6792C73.8706 36.1715 74.0605 36.3793 74.5165 36.3793C74.8584 36.3793 75.043 36.2645 75.0484 36.0457C75.0484 36.0074 75.0756 35.9855 75.1081 35.9855H75.4609C75.4881 35.9855 75.5098 36.0074 75.5152 36.0347C75.5424 36.4997 75.1461 36.7896 74.4893 36.7896C73.7946 36.7896 73.4309 36.4614 73.4092 35.816V35.0502C73.4092 34.361 73.7891 33.9891 74.4893 33.9891C75.1895 33.9891 75.5641 34.3501 75.5641 35.0229V35.4495C75.5641 35.4823 75.5424 35.5042 75.5098 35.5042H73.8706ZM74.4948 34.3993C74.0714 34.3993 73.8706 34.629 73.8706 35.1049H75.1027C75.1027 34.6236 74.9127 34.3993 74.4948 34.3993Z" fill="#004B98"/>
</svg>
