<svg width="90" height="48" fill="none" xmlns="http://www.w3.org/2000/svg"><path d="M47.09 8.564h-3.082v3.105h3.082V8.564Z" fill="#004B98"/><path d="m57.874 3.055-4.672 4.707L45.5 0l-7.653 7.762-4.672-4.707-8.548 8.614h3.528l5.02-5.058 2.883 2.904-2.088 2.154h3.48l8.05-8.113 8.1 8.113h3.48l-2.087-2.154 2.882-2.904 5.02 5.058h3.528l-8.548-8.614ZM32.163 41.561v1.945h26.668V41.56H32.163ZM42.92 45.454v1.944h5.206v-1.944H42.92ZM0 25.704V19.75c0-1.397.868-2.087 2.589-2.087h7.157v1.841H3.58c-.35 0-.533.138-.533.43v5.585c0 .292.182.43.533.43h6.167v1.841H2.59C.868 27.79 0 27.1 0 25.705ZM11.574 27.79V17.663h3.274l4.34 6.076v-6.076h3.046V27.79h-3.275l-4.34-6.077v6.077h-3.045ZM29.239 25.704V19.75c0-1.397.868-2.087 2.589-2.087h7.157v1.841h-6.167c-.35 0-.533.138-.533.43v5.585c0 .292.182.43.533.43h3.73V23.34h-1.98V21.5h5.026v6.292h-7.766c-1.721 0-2.59-.691-2.59-2.087ZM41.574 25.95V20.27h2.74v5.601c0 .2.123.307.382.307h2.665v-5.908h2.74v7.52h-6.243c-1.523 0-2.284-.614-2.284-1.842ZM51.929 25.95v-8.287h2.74v2.608h2.59v1.612h-2.59v3.99c0 .199.123.306.382.306h2.208v1.612h-3.046c-1.523 0-2.284-.614-2.284-1.842ZM58.782 25.95v-8.287h2.74v2.608h2.59v1.612h-2.59v3.99c0 .199.123.306.382.306h2.208v1.612h-3.046c-1.523 0-2.284-.614-2.284-1.842ZM65.635 25.95v-3.837c0-1.228.761-1.842 2.284-1.842h3.655c1.523 0 2.284.614 2.284 1.842v2.608h-5.482v1.151c0 .2.122.307.38.307h4.797v1.612H67.92c-1.523 0-2.284-.614-2.284-1.842Zm2.74-2.84h2.742v-.92c0-.2-.122-.307-.38-.307h-1.98c-.26 0-.381.107-.381.306v.921ZM75.685 27.79v-5.677c0-1.228.761-1.842 2.284-1.842h3.046v1.612h-2.208c-.259 0-.38.107-.38.306v5.602h-2.742ZM82.233 27.79v-1.61h4.645c.228 0 .38-.078.38-.308v-.844c0-.23-.151-.306-.38-.306h-2.36c-1.523 0-2.285-.614-2.285-1.842v-.767c0-1.228.762-1.842 2.285-1.842h4.873v1.612h-4.036c-.228 0-.38.076-.38.306v.614c0 .23.152.307.38.307h2.36c1.523 0 2.285.614 2.285 1.842v.997c0 1.228-.761 1.841-2.284 1.841h-5.483ZM18.522 34.055c.038 0 .054.022.043.06l-.793 2.56c-.01.033-.027.05-.06.05h-.493c-.027 0-.049-.012-.06-.045l-.385-1.296-.413 1.296c-.01.033-.032.044-.06.044h-.493c-.033 0-.05-.016-.06-.05l-.787-2.559c-.011-.038.005-.06.043-.06h.38c.033 0 .05.016.06.05l.63 2.209.515-1.592-.163-.552c-.01-.038.006-.06.044-.06h.342c.032 0 .054.016.06.043l.58 2.16.63-2.209c.01-.033.027-.05.06-.05h.38ZM19.558 35.504v.175c0 .492.19.7.646.7.342 0 .527-.114.532-.333 0-.039.027-.06.06-.06h.353c.027 0 .049.021.054.049.027.465-.369.755-1.026.755-.694 0-1.058-.329-1.08-.974v-.766c0-.689.38-1.06 1.08-1.06.7 0 1.075.36 1.075 1.033v.426c0 .033-.022.055-.054.055h-1.64Zm.625-1.105c-.424 0-.625.23-.625.706h1.233c0-.481-.19-.706-.608-.706ZM25.28 36.658c.021.039.005.066-.039.066h-.418c-.027 0-.048-.016-.065-.038l-.792-1.291-.38.388v.886c0 .033-.022.055-.054.055h-.353c-.033 0-.054-.022-.054-.055v-3.626c0-.033.021-.055.054-.055h.353c.032 0 .054.022.054.055v2.172l1.042-1.133c.016-.022.038-.027.065-.027h.478c.049 0 .06.033.027.066l-.901.93.982 1.607ZM27.19 33.99c.521 0 .803.311.803.913v1.766c0 .033-.021.055-.054.055h-.353c-.032 0-.054-.022-.054-.055v-1.744c0-.361-.147-.525-.445-.525-.26 0-.483.125-.836.464v1.805c0 .033-.022.055-.054.055h-.353c-.033 0-.055-.022-.055-.055v-1.947c0-.186-.016-.465-.038-.596-.005-.044.011-.071.055-.071h.33c.039 0 .05.01.06.055.017.065.033.213.044.344.331-.328.603-.465.95-.465ZM29.855 33.99c.727 0 1.118.355 1.118 1.082v.635c0 .727-.38 1.083-1.118 1.083-.733 0-1.118-.356-1.118-1.083v-.635c0-.727.38-1.083 1.118-1.083Zm.657 1.126c0-.481-.196-.717-.657-.717s-.657.236-.657.717v.547c0 .481.196.716.657.716s.657-.235.657-.716v-.547ZM35.066 34.055c.038 0 .054.022.043.06l-.792 2.56c-.01.033-.027.05-.06.05h-.494c-.027 0-.049-.012-.06-.045l-.385-1.296-.412 1.296c-.011.033-.033.044-.06.044h-.494c-.033 0-.049-.016-.06-.05l-.787-2.559c-.01-.038.006-.06.044-.06h.38c.032 0 .049.016.06.05l.629 2.209.516-1.592-.163-.552c-.011-.038.005-.06.043-.06h.342c.033 0 .054.016.06.043l.58 2.16.63-2.209c.011-.033.028-.05.06-.05h.38ZM37.427 33.344c.033 0 .054.016.054.054l.006.657h.809c.032 0 .054.022.054.054v.29c0 .033-.022.055-.054.055h-.81v1.466c0 .344.11.465.397.465.147 0 .299-.038.407-.088.038-.016.065 0 .065.039v.3c0 .028-.01.05-.043.06-.13.055-.304.094-.532.094-.554 0-.755-.285-.755-.86v-1.476h-.417c-.033 0-.055-.022-.055-.055v-.29c0-.032.022-.054.055-.054h.428l.06-.657c.005-.038.027-.054.06-.054h.271ZM40.358 33.99c.522 0 .798.311.798.913v1.766c0 .033-.021.055-.054.055h-.353c-.032 0-.054-.022-.054-.055v-1.744c0-.356-.147-.525-.44-.525-.271 0-.532.147-.841.464v1.805c0 .033-.022.055-.054.055h-.353c-.033 0-.054-.022-.054-.055v-3.626c0-.033.021-.055.054-.055h.353c.032 0 .054.022.054.055v1.4c.32-.317.602-.454.944-.454ZM42.361 35.504v.175c0 .492.19.7.646.7.342 0 .527-.114.532-.333 0-.039.027-.06.06-.06h.353c.027 0 .049.021.054.049.027.465-.37.755-1.026.755-.695 0-1.058-.329-1.08-.974v-.766c0-.689.38-1.06 1.08-1.06.7 0 1.075.36 1.075 1.033v.426c0 .033-.022.055-.054.055h-1.64Zm.625-1.105c-.424 0-.625.23-.625.706h1.232c0-.481-.19-.706-.608-.706ZM48.028 34.055c.038 0 .054.022.044.06l-.89 2.565c-.012.033-.039.044-.066.044h-.505a.07.07 0 0 1-.065-.044l-.885-2.565c-.01-.038.006-.06.044-.06h.375a.07.07 0 0 1 .065.044l.721 2.286.722-2.286a.07.07 0 0 1 .066-.044h.374ZM50.487 36.062c0 .257.01.454.038.602.005.038-.016.06-.054.06h-.315c-.044 0-.054-.033-.065-.077a3.456 3.456 0 0 1-.044-.35c-.342.35-.613.493-.928.493-.423 0-.646-.258-.646-.75 0-.569.304-.798 1.13-.875l.422-.038v-.224c0-.367-.13-.504-.488-.504-.326 0-.494.115-.489.34 0 .032-.016.054-.048.054h-.359c-.038 0-.054-.027-.06-.104-.037-.416.359-.7.972-.7.63 0 .934.296.934.903v1.17Zm-1.553-.055c0 .252.098.372.305.372.217 0 .423-.125.787-.475v-.422l-.435.039c-.5.043-.657.158-.657.486ZM51.708 32.988c.032 0 .054.022.054.055v3.626c0 .033-.022.055-.054.055h-.353c-.032 0-.054-.022-.054-.055v-3.626c0-.033.021-.055.054-.055h.353ZM54.742 36.67c.006.032-.016.054-.06.054h-.303c-.038 0-.06-.016-.065-.055a3.608 3.608 0 0 1-.038-.366c-.337.323-.657.487-.983.487-.461 0-.716-.323-.716-.914V34.11c0-.032.021-.054.054-.054h.353c.032 0 .054.022.054.054v1.745c0 .361.125.525.39.525.245 0 .468-.125.815-.465V34.11c0-.032.022-.054.054-.054h.353c.033 0 .054.022.054.054v1.948c0 .197.011.41.038.612ZM55.91 35.504v.175c0 .492.19.7.645.7.342 0 .527-.114.532-.333 0-.039.027-.06.06-.06h.352c.028 0 .05.021.055.049.027.465-.37.755-1.026.755-.695 0-1.059-.329-1.08-.974v-.766c0-.689.38-1.06 1.08-1.06.7 0 1.075.36 1.075 1.033v.426c0 .033-.022.055-.055.055H55.91Zm.623-1.105c-.423 0-.624.23-.624.706h1.232c0-.481-.19-.706-.608-.706ZM60.523 33.99c.727 0 1.118.355 1.118 1.082v.635c0 .727-.38 1.083-1.118 1.083-.733 0-1.118-.356-1.118-1.083v-.635c0-.727.38-1.083 1.118-1.083Zm.657 1.126c0-.481-.196-.717-.657-.717s-.657.236-.657.717v.547c0 .481.196.716.657.716s.657-.235.657-.716v-.547ZM63.02 33.782v.273h.787c.033 0 .054.022.054.055v.29c0 .032-.021.054-.054.054h-.787v2.215c0 .033-.022.055-.054.055h-.353c-.033 0-.054-.022-.054-.055v-2.215h-.418c-.033 0-.055-.022-.055-.054v-.29c0-.033.022-.055.055-.055h.418v-.285c0-.53.33-.842.884-.842.163 0 .353.033.478.088.07.027.103.054.103.087v.301c0 .038-.027.06-.125.016a1.218 1.218 0 0 0-.423-.087c-.299 0-.456.159-.456.449ZM66.092 33.344c.033 0 .054.016.054.054l.006.657h.809c.032 0 .054.022.054.054v.29c0 .033-.022.055-.054.055h-.81v1.466c0 .344.11.465.397.465.147 0 .299-.038.407-.088.038-.016.065 0 .065.039v.3c0 .028-.01.05-.043.06-.13.055-.304.094-.532.094-.554 0-.754-.285-.754-.86v-1.476h-.419c-.032 0-.054-.022-.054-.055v-.29c0-.032.022-.054.054-.054h.43l.06-.657c.004-.038.026-.054.059-.054h.271ZM67.84 32.967c.19 0 .293.081.293.24v.148c0 .153-.103.235-.293.235-.185 0-.288-.082-.288-.235v-.148c0-.159.103-.24.288-.24Zm.184 1.088c.033 0 .055.022.055.055v2.56c0 .032-.022.054-.054.054h-.353c-.033 0-.055-.022-.055-.055v-2.56c0-.032.022-.054.055-.054h.353ZM71.927 33.99c.483 0 .738.311.738.907v1.772c0 .033-.022.055-.054.055h-.353c-.032 0-.054-.022-.054-.055v-1.744c0-.35-.125-.525-.39-.525-.24 0-.473.142-.804.464v1.805c0 .033-.022.055-.055.055h-.352c-.033 0-.055-.022-.055-.055v-1.744c0-.35-.124-.525-.39-.525-.24 0-.473.142-.804.464v1.805c0 .033-.022.055-.054.055h-.353c-.032 0-.054-.022-.054-.055v-1.947c0-.197-.011-.426-.038-.601-.006-.039.016-.066.06-.066h.325c.038 0 .05.005.055.038.016.11.037.235.048.367.326-.328.592-.47.928-.47.37 0 .598.174.69.508.347-.355.619-.509.966-.509ZM73.87 35.504v.175c0 .492.19.7.646.7.342 0 .527-.114.532-.333 0-.039.028-.06.06-.06h.353c.027 0 .049.021.054.049.027.465-.369.755-1.026.755-.694 0-1.058-.329-1.08-.974v-.766c0-.689.38-1.06 1.08-1.06.7 0 1.075.36 1.075 1.033v.426c0 .033-.022.055-.054.055h-1.64Zm.625-1.105c-.424 0-.624.23-.624.706h1.232c0-.481-.19-.706-.608-.706Z" fill="#004B98"/></svg>