<svg width="120" height="28" fill="none" xmlns="http://www.w3.org/2000/svg"><path d="M34.422 19.906V8.372h3.844v8.338h8.312v3.2l-12.156-.004ZM61.861 8.372v6.496c0 1.358-.268 2.437-.804 3.24-.536.803-1.303 1.371-2.302 1.705-.998.334-2.245.501-3.742.501-1.497 0-2.745-.167-3.743-.5-.998-.334-1.765-.9-2.302-1.698-.536-.797-.804-1.88-.804-3.248V8.372h3.843v6.383c0 .83.258 1.427.775 1.793.517.367 1.261.55 2.234.55.964 0 1.706-.183 2.228-.55.521-.366.78-.964.78-1.793V8.372h3.837ZM80.795 19.906H76.95v-7.854h-.09l-3.04 7.854h-2.899l-3.084-7.95h-.104v7.95H64.1V8.372h5.898l2.34 6.48h.103l2.294-6.48H80.8l-.004 11.534ZM83.028 19.906V8.372h3.844V19.91l-3.844-.004ZM102.282 9.484c1.296 1.012 1.944 2.563 1.944 4.654 0 2.091-.648 3.643-1.944 4.654-1.295 1.011-3.219 1.517-5.77 1.517-2.543 0-4.462-.506-5.757-1.517-1.296-1.011-1.944-2.563-1.946-4.654 0-2.09.648-3.64 1.944-4.654 1.295-1.013 3.215-1.518 5.757-1.517 2.552-.001 4.477.504 5.772 1.517Zm-3.15 6.909c.585-.523.878-1.275.878-2.255.001-.98-.292-1.731-.878-2.254-.586-.523-1.46-.784-2.622-.784s-2.034.261-2.614.784c-.582.523-.872 1.274-.872 2.254s.29 1.732.872 2.255c.58.522 1.452.783 2.614.783s2.036-.26 2.622-.783ZM114.423 10.858c-.423-.203-1.031-.304-1.825-.304-.814 0-1.395.084-1.743.25-.348.168-.522.413-.522.736a.6.6 0 0 0 .312.566c.208.118.566.204 1.072.258l4.335.388c1.311.118 2.297.458 2.957 1.018.661.56.991 1.406.991 2.537 0 1.067-.266 1.891-.797 2.473-.531.581-1.311.982-2.339 1.203-1.029.221-2.387.332-4.074.332-1.62 0-2.931-.119-3.933-.356-1.003-.237-1.775-.663-2.317-1.276-.541-.614-.832-1.481-.871-2.602h4.474c.109.614.385 1.037.827 1.269.441.231 1.1.347 1.974.347.893 0 1.537-.089 1.929-.267.392-.178.588-.456.588-.834 0-.313-.114-.54-.342-.683-.229-.143-.571-.234-1.028-.275l-4.172-.436c-1.321-.14-2.313-.468-2.978-.986s-.998-1.342-.998-2.473c0-.96.265-1.718.797-2.27.531-.553 1.291-.944 2.279-1.172.987-.226 2.226-.34 3.716-.34 1.48 0 2.711.116 3.694.348.983.232 1.751.633 2.302 1.204.552.57.842 1.352.871 2.343h-4.424a1.274 1.274 0 0 0-.247-.592 1.323 1.323 0 0 0-.508-.406Z" fill="#2B2B2B"/><path fill-rule="evenodd" clip-rule="evenodd" d="M15.55 23.694a11.61 11.61 0 0 1-2.885-.001c-.224 1.234-.873 2.148-1.798 2.458-.77.26-1.505.026-1.586 0H9.28c-1.733-.58-2.226-3.078-2.354-4.908a11.042 11.042 0 0 1-2.313-2.586c-.05.207-.089.396-.124.57-.146.71-.237 1.15-.77 1.474-.797.484-1.8.241-1.852.227C.84 20.664.39 19.785.279 19.563c-1.092-2.14 1.355-4.757 1.588-5a7.45 7.45 0 0 1 1.076-.925 10.754 10.754 0 0 1-.025-.746C2.918 6.876 7.93 2 14.113 2 20.296 2 25.31 6.876 25.31 12.892c0 .255-.01.508-.027.759.348.248.707.547 1.056.911.243.244 2.69 2.86 1.598 5.001-.111.22-.561 1.1-1.587 1.365-.053.014-1.056.257-1.852-.227-.53-.324-.621-.762-.767-1.47a18.238 18.238 0 0 0-.123-.565c-.63.977-1.413 1.85-2.319 2.586-.128 1.83-.622 4.32-2.352 4.9h-.002c-.08.025-.816.259-1.586 0-.924-.311-1.573-1.224-1.797-2.458Z" fill="#2B2B2B"/><path d="M14.113 18.618c4.119 0 7.457-2.564 7.457-5.727 0-3.163-3.338-5.727-7.457-5.727-4.118 0-7.456 2.564-7.456 5.727 0 3.163 3.338 5.727 7.456 5.727Z" fill="#fff"/><path d="M10.919 14.343c.89 0 1.613-.94 1.613-2.1 0-1.16-.722-2.1-1.613-2.1s-1.613.94-1.613 2.1c0 1.16.722 2.1 1.613 2.1ZM17.035 14.343c.89 0 1.613-.94 1.613-2.1 0-1.16-.722-2.1-1.613-2.1s-1.614.94-1.614 2.1c0 1.16.723 2.1 1.614 2.1Z" fill="#2B2B2B"/></svg>