<svg width="120" height="28" viewBox="0 0 120 28" fill="none" xmlns="http://www.w3.org/2000/svg">
<path d="M34.4224 19.9059V8.37183H38.2657V16.7101H46.5777V19.9097L34.4224 19.9059Z" fill="#2B2B2B"/>
<path d="M61.8612 8.37183V14.8682C61.8612 16.2256 61.5933 17.3055 61.0573 18.1081C60.5214 18.9107 59.7541 19.4791 58.7555 19.8134C57.7575 20.1471 56.5099 20.314 55.0128 20.314C53.5157 20.314 52.2681 20.1471 51.2701 19.8134C50.272 19.4796 49.5047 18.914 48.9683 18.1164C48.4318 17.3189 48.1636 16.2362 48.1636 14.8682V8.37183H52.0069V14.7552C52.0069 15.5841 52.2653 16.1818 52.782 16.5485C53.2987 16.9151 54.0433 17.0984 55.0159 17.0984C55.9797 17.0984 56.7222 16.9151 57.2436 16.5485C57.765 16.1818 58.0249 15.5841 58.0234 14.7552V8.37183H61.8612Z" fill="#2B2B2B"/>
<path d="M80.7946 19.9059H76.9513V12.0524H76.8616L73.8206 19.9059H70.9223L67.8385 11.9553H67.734V19.9059H64.0996V8.37183H69.9983L72.3376 14.8516H72.4413L74.7352 8.37183H80.7985L80.7946 19.9059Z" fill="#2B2B2B"/>
<path d="M83.0283 19.9059V8.37183H86.8717V19.9097L83.0283 19.9059Z" fill="#2B2B2B"/>
<path d="M102.282 9.48437C103.578 10.4958 104.226 12.0471 104.226 14.1382C104.226 16.2293 103.578 17.7806 102.282 18.7921C100.987 19.8035 99.0632 20.3092 96.5124 20.3092C93.9694 20.3092 92.0502 19.8035 90.7548 18.7921C89.4594 17.7806 88.8107 16.2293 88.8086 14.1382C88.8086 12.0486 89.4566 10.4973 90.7525 9.48437C92.0484 8.47143 93.9676 7.96571 96.5101 7.96723C99.0624 7.96571 100.987 8.47143 102.282 9.48437ZM99.1316 16.3927C99.7169 15.8698 100.01 15.1183 100.01 14.1382C100.011 13.1581 99.7179 12.4066 99.1316 11.8837C98.5462 11.3613 97.6724 11.1001 96.5101 11.1001C95.3477 11.1001 94.4763 11.3613 93.8956 11.8837C93.3144 12.4066 93.0239 13.1581 93.0239 14.1382C93.0239 15.1183 93.3144 15.8698 93.8956 16.3927C94.4768 16.9151 95.3483 17.1763 96.5101 17.1763C97.6719 17.1763 98.5457 16.9151 99.1316 16.3927Z" fill="#2B2B2B"/>
<path d="M114.423 10.8578C114 10.6555 113.392 10.5544 112.598 10.5544C111.784 10.5544 111.203 10.6378 110.855 10.8047C110.507 10.9716 110.333 11.2166 110.333 11.5397C110.326 11.653 110.351 11.7661 110.406 11.8661C110.461 11.9661 110.544 12.0491 110.645 12.1056C110.853 12.224 111.211 12.3102 111.717 12.3643L116.052 12.7519C117.363 12.8703 118.349 13.2096 119.009 13.7699C119.67 14.3303 120 15.1761 120 16.3074C120 17.3739 119.734 18.198 119.203 18.7796C118.672 19.3611 117.892 19.7624 116.864 19.9834C115.835 20.2044 114.477 20.3149 112.79 20.3149C111.17 20.3149 109.859 20.1963 108.857 19.9591C107.854 19.722 107.082 19.2964 106.54 18.6825C105.999 18.069 105.708 17.2017 105.669 16.0806H110.143C110.252 16.695 110.528 17.118 110.97 17.3496C111.411 17.5813 112.07 17.6971 112.944 17.6971C113.837 17.6971 114.481 17.6081 114.873 17.4301C115.265 17.252 115.461 16.9739 115.461 16.5956C115.461 16.2831 115.347 16.0555 115.119 15.9129C114.89 15.7703 114.548 15.6788 114.091 15.6383L109.919 15.2021C108.598 15.0626 107.606 14.7338 106.941 14.216C106.276 13.6981 105.943 12.8738 105.943 11.743C105.943 10.7822 106.208 10.0254 106.74 9.47263C107.271 8.91988 108.031 8.52922 109.019 8.30064C110.006 8.07458 111.245 7.96155 112.735 7.96155C114.215 7.96155 115.446 8.07736 116.429 8.30898C117.412 8.5406 118.18 8.94188 118.731 9.51283C119.283 10.0838 119.573 10.8649 119.602 11.8561H115.178C115.148 11.6416 115.063 11.4379 114.931 11.2636C114.799 11.0892 114.625 10.9497 114.423 10.8578Z" fill="#2B2B2B"/>
<path fill-rule="evenodd" clip-rule="evenodd" d="M15.5505 23.6942C15.0799 23.7529 14.6001 23.7832 14.1131 23.7832C13.6224 23.7832 13.1392 23.7525 12.6652 23.6929C12.4408 24.9274 11.7915 25.8407 10.8672 26.1512C10.0977 26.411 9.36198 26.1773 9.28127 26.1517L9.27962 26.1512C7.54683 25.5709 7.054 23.0733 6.92614 21.243C6.02253 20.5063 5.24026 19.6333 4.61271 18.6566C4.56333 18.864 4.52445 19.0531 4.48888 19.2261C4.34259 19.9375 4.25232 20.3765 3.71853 20.7008C2.92241 21.1848 1.91967 20.942 1.86665 20.9284C0.840512 20.6644 0.390604 19.7852 0.279101 19.563C-0.812533 17.4223 1.63429 14.8059 1.86665 14.5624C2.22201 14.1918 2.58888 13.8886 2.94343 13.6376C2.92629 13.3911 2.91758 13.1423 2.91758 12.8916C2.91758 6.87633 7.92997 2 14.1131 2C20.2962 2 25.3086 6.87633 25.3086 12.8916C25.3086 13.1468 25.2995 13.4 25.2818 13.6509C25.6298 13.8992 25.9893 14.1983 26.338 14.5624C26.5812 14.8059 29.0288 17.4223 27.9357 19.563C27.8249 19.7837 27.375 20.6629 26.3489 20.9284C26.2959 20.942 25.2931 21.1848 24.497 20.7008C23.9661 20.3772 23.8759 19.9393 23.7298 19.2305C23.6945 19.0591 23.6559 18.8718 23.607 18.6665C22.9779 19.6434 22.1939 20.5162 21.2885 21.2524C21.1599 23.0818 20.6658 25.5719 18.9359 26.1512L18.9343 26.1517C18.8535 26.1773 18.1179 26.411 17.3484 26.1512C16.4244 25.8408 15.7752 24.928 15.5505 23.6942Z" fill="#2B2B2B"/>
<path d="M14.1134 18.6184C18.2316 18.6184 21.57 16.0543 21.57 12.8912C21.57 9.72817 18.2316 7.164 14.1134 7.164C9.99519 7.164 6.65674 9.72817 6.65674 12.8912C6.65674 16.0543 9.99519 18.6184 14.1134 18.6184Z" fill="white"/>
<path d="M10.9189 14.3429C11.8099 14.3429 12.5322 13.4028 12.5322 12.2432C12.5322 11.0835 11.8099 10.1434 10.9189 10.1434C10.028 10.1434 9.30566 11.0835 9.30566 12.2432C9.30566 13.4028 10.028 14.3429 10.9189 14.3429Z" fill="#2B2B2B"/>
<path d="M17.0347 14.3429C17.9257 14.3429 18.6479 13.4028 18.6479 12.2432C18.6479 11.0835 17.9257 10.1434 17.0347 10.1434C16.1437 10.1434 15.4214 11.0835 15.4214 12.2432C15.4214 13.4028 16.1437 14.3429 17.0347 14.3429Z" fill="#2B2B2B"/>
</svg>
