<svg width="80" height="80" fill="none" xmlns="http://www.w3.org/2000/svg"><circle cx="40" cy="40" r="40" fill="#F0F1F2"/><path d="M39.5 22c-5.089 0-9.229 4.258-9.229 9.492 0 5.234 4.14 9.492 9.229 9.492 5.089 0 9.228-4.258 9.228-9.492 0-5.234-4.14-9.492-9.228-9.492Zm11.482 25.186c-2.526-2.64-5.876-4.092-9.431-4.092h-4.102c-3.555 0-6.904 1.453-9.431 4.092-2.514 2.625-3.899 6.091-3.899 9.76 0 .582.46 1.054 1.026 1.054h28.71c.567 0 1.026-.472 1.026-1.055 0-3.668-1.385-7.134-3.899-9.76Z" fill="#004B98"/></svg>