<svg width="21" height="22" fill="none" xmlns="http://www.w3.org/2000/svg"><path d="M15.854.522a29.285 29.285 0 0 0-11.011 0C3.24.87 1.219 2.82.87 4.352a22.004 22.004 0 0 0 0 9.05c.418 1.532 2.44 3.482 3.973 3.83.07 0 .14.07.14.14v4.385c0 .21.278.348.417.14l2.09-2.159s1.674-1.74 1.952-2.019c0 0 .07-.07.14-.07 2.09.07 4.25-.139 6.341-.487 1.603-.348 3.624-2.297 3.973-3.829a22.005 22.005 0 0 0 0-9.051C19.478 2.82 17.456.87 15.854.522Zm.07 13.09c-.349.696-.767 1.253-1.464 1.6l-.627.21c-.279-.07-.488-.14-.697-.21-2.23-.904-4.32-2.157-5.994-3.968a16.75 16.75 0 0 1-2.3-3.481c-.278-.627-.557-1.184-.766-1.81-.209-.557.14-1.114.488-1.532.348-.418.767-.696 1.254-.905.349-.209.697-.07.976.209.558.696 1.115 1.392 1.533 2.158.279.488.21 1.045-.279 1.393-.139.07-.209.139-.348.278-.07.07-.21.14-.279.279-.14.209-.14.417-.07.626.558 1.602 1.603 2.855 3.206 3.551.28.14.488.209.837.209.487-.07.697-.627 1.045-.905.348-.279.767-.279 1.185-.07.348.21.697.488 1.115.766.348.279.697.488 1.045.766.21.14.279.487.14.835ZM12.995 8.39c-.139 0-.07 0 0 0-.278 0-.348-.14-.418-.348 0-.14 0-.349-.07-.488a1.324 1.324 0 0 0-.487-.766l-.418-.209c-.21-.07-.349-.07-.558-.07-.209-.069-.279-.208-.279-.417 0-.14.21-.278.349-.278 1.115.07 1.951.696 2.09 2.019v.278c0 .14-.07.279-.209.279ZM12.3 5.326c-.349-.139-.697-.278-1.116-.348-.139 0-.348-.07-.487-.07-.21 0-.349-.139-.28-.348 0-.209.14-.348.35-.278.696.07 1.324.209 1.95.487 1.255.627 1.952 1.671 2.161 3.064V8.738c-.07.278-.557.348-.627 0 0-.07-.07-.21-.07-.279 0-.626-.14-1.253-.418-1.81-.418-.627-.906-1.044-1.463-1.323Zm3.763 4.178c-.21 0-.349-.21-.349-.418 0-.418-.07-.836-.139-1.253-.279-2.228-2.09-4.038-4.251-4.387-.348-.07-.697-.07-.976-.139-.209 0-.488 0-.557-.278-.07-.21.14-.418.348-.418h.14c2.857.07.139 0 0 0 2.927.07 5.366 2.019 5.854 4.943.07.488.139.975.139 1.532.14.209 0 .418-.21.418Z" fill="#004B98"/></svg>