<svg width="20" height="20" fill="none" xmlns="http://www.w3.org/2000/svg"><path d="M16.72 2.777A9.87 9.87 0 0 0 9.829 0C4.436 0 .068 4.232.068 9.455c0 1.653.478 3.307 1.297 4.695L0 19.043l5.187-1.322a10.206 10.206 0 0 0 4.64 1.124c5.392 0 9.76-4.232 9.76-9.456-.068-2.446-1.023-4.827-2.866-6.612Zm-2.183 10.05c-.205.53-1.16 1.059-1.638 1.125-.41.066-.955.066-1.501-.066-.342-.133-.82-.265-1.365-.53-2.457-.991-4.027-3.372-4.164-3.57-.136-.132-1.023-1.256-1.023-2.446 0-1.19.614-1.72.819-1.984.204-.265.477-.265.682-.265h.478c.136 0 .341-.066.546.397.205.463.682 1.653.75 1.72a.41.41 0 0 1 0 .396c-.068.132-.136.265-.272.397-.137.132-.273.33-.342.397-.136.132-.273.264-.136.462.136.265.614.992 1.365 1.653.955.794 1.706 1.058 1.979 1.19.273.133.41.067.546-.066.137-.132.614-.66.75-.925.137-.265.342-.199.547-.133.204.067 1.433.662 1.638.794.273.132.41.198.477.264.069.199.069.662-.136 1.19Z" fill="#004B98"/></svg>